<svg xmlns="http://www.w3.org/2000/svg" xmlns:xlink="http://www.w3.org/1999/xlink" width="5000" zoomAndPan="magnify" viewBox="0 0 3750 3749.999967" height="5000" preserveAspectRatio="xMidYMid meet" version="1.0"><defs><clipPath id="f0042b2571"><path d="M 302.609375 277.550781 L 3553 277.550781 L 3553 3375 L 302.609375 3375 Z M 302.609375 277.550781 " clip-rule="nonzero"/></clipPath><clipPath id="abe7c017e9"><path d="M 1927.5 277.550781 L 2311.085938 1460.671875 L 3552.390625 1460.671875 L 2548.152344 2191.882812 L 2931.738281 3375 L 1927.5 2643.792969 L 923.261719 3375 L 1306.847656 2191.882812 L 302.609375 1460.671875 L 1543.914062 1460.671875 Z M 1927.5 277.550781 " clip-rule="nonzero"/></clipPath><clipPath id="08a61e738b"><path d="M 789.730469 790.566406 L 3066 790.566406 L 3066 2959.433594 L 789.730469 2959.433594 Z M 789.730469 790.566406 " clip-rule="nonzero"/></clipPath><clipPath id="0762d17fba"><path d="M 1927.5 790.566406 L 2196.089844 1619 L 3065.269531 1619 L 2362.089844 2131 L 2630.679688 2959.433594 L 1927.5 2447.4375 L 1224.320312 2959.433594 L 1492.910156 2131 L 789.730469 1619 L 1658.910156 1619 Z M 1927.5 790.566406 " clip-rule="nonzero"/></clipPath><clipPath id="8833916f46"><path d="M 998.84375 989.875 L 2857 989.875 L 2857 2760.125 L 998.84375 2760.125 Z M 998.84375 989.875 " clip-rule="nonzero"/></clipPath><clipPath id="688060de92"><path d="M 1927.5 989.875 L 2146.726562 1666.050781 L 2856.15625 1666.050781 L 2282.214844 2083.949219 L 2501.441406 2760.125 L 1927.5 2342.226562 L 1353.558594 2760.125 L 1572.785156 2083.949219 L 998.84375 1666.050781 L 1708.273438 1666.050781 Z M 1927.5 989.875 " clip-rule="nonzero"/></clipPath></defs><g clip-path="url(#f0042b2571)"><g clip-path="url(#abe7c017e9)"><path fill="#000000" d="M 302.609375 277.550781 L 3557.347656 277.550781 L 3557.347656 3375 L 302.609375 3375 Z M 302.609375 277.550781 " fill-opacity="1" fill-rule="nonzero"/></g></g><g clip-path="url(#08a61e738b)"><g clip-path="url(#0762d17fba)"><path fill="#ffffff" d="M 789.730469 790.566406 L 3068.738281 790.566406 L 3068.738281 2959.433594 L 789.730469 2959.433594 Z M 789.730469 790.566406 " fill-opacity="1" fill-rule="nonzero"/></g></g><g clip-path="url(#8833916f46)"><g clip-path="url(#688060de92)"><path fill="#ff00a8" d="M 998.84375 989.875 L 2858.988281 989.875 L 2858.988281 2760.125 L 998.84375 2760.125 Z M 998.84375 989.875 " fill-opacity="1" fill-rule="nonzero"/></g></g></svg>