<svg xmlns="http://www.w3.org/2000/svg" xmlns:xlink="http://www.w3.org/1999/xlink" width="5000" zoomAndPan="magnify" viewBox="0 0 3750 3749.999967" height="5000" preserveAspectRatio="xMidYMid meet" version="1.0"><defs><clipPath id="f9b7b4e4d6"><path d="M 1313.191406 958 L 2446.777344 958 L 2446.777344 2796 L 1313.191406 2796 Z M 1313.191406 958 " clip-rule="nonzero"/></clipPath></defs><path fill="#000000" d="M 3328.121094 516.796875 C 2861.03125 490.398438 2453.257812 801.578125 2155.324219 1129.46875 C 2150.574219 1134.699219 2145.84375 1139.941406 2141.128906 1145.203125 C 2105.554688 1184.890625 2069.128906 1223.820312 2033.125 1263.140625 C 1986.835938 1313.6875 1930.152344 1360.222656 1904.023438 1425.4375 C 1875.066406 1497.730469 1922.109375 1593.53125 1963.402344 1674.742188 C 1978.445312 1704.316406 2284.167969 2537.355469 2284.003906 2609.664062 C 2283.929688 2642.21875 2273.539062 2682.097656 2306.597656 2703.917969 C 2339.417969 2725.585938 2337.96875 2680.414062 2373.863281 2695.527344 C 2426.832031 2717.832031 2368.582031 2801.089844 2403.066406 2843.769531 C 2465.808594 2921.414062 2513.863281 2815.4375 2561.03125 2789.4375 C 2591.117188 2772.855469 2602.085938 2796.4375 2629.710938 2803.832031 C 2662.390625 2812.582031 2663.429688 2786.988281 2687.132812 2772.757812 C 2758.230469 2730.074219 2804.117188 2807.863281 2824.117188 2866.109375 C 2836.183594 2901.246094 2843.902344 2938.28125 2847.410156 2975.257812 C 2851.59375 3019.375 2841.878906 3063.964844 2853.476562 3107.386719 C 2861.511719 3137.480469 2871.226562 3206.777344 2896.058594 3227.191406 C 2935.238281 3259.402344 2951.1875 3201.8125 2956.503906 3172.421875 C 2963.886719 3131.609375 2960.492188 3090.328125 2951.816406 3050.015625 C 2944.824219 3017.511719 2923.960938 2990.296875 2911.042969 2959.351562 C 2882.78125 2891.648438 2869.28125 2818.9375 2856.050781 2747.132812 C 2849.390625 2710.992188 2846.066406 2678.058594 2854.898438 2642.125 C 2862.257812 2612.183594 2881.265625 2589.65625 2892.769531 2561.191406 C 2903.253906 2535.253906 2893.089844 2536.46875 2926.121094 2533.285156 C 2952.957031 2530.695312 2971.304688 2533.09375 2984.320312 2506.074219 C 3007.863281 2457.195312 2972.1875 2394.496094 2976.519531 2344.5 C 2981.1875 2290.59375 2988.480469 2269.105469 3037.402344 2247.273438 C 3105.890625 2216.707031 3066.976562 2164.933594 3041.578125 2115.742188 C 3032.691406 2098.535156 3021.621094 2085.082031 3024.105469 2067.324219 C 3026.394531 2050.945312 3034.121094 2039.539062 3035.289062 2021.40625 C 3036.410156 2003.992188 3034.765625 1992.390625 3041.660156 1977.429688 C 3049.726562 1959.929688 3059.25 1955.160156 3060.464844 1933.296875 C 3062.203125 1901.96875 3047.367188 1869.394531 3031.859375 1843.074219 C 3013.410156 1811.761719 3001.488281 1777.214844 2980.113281 1747.347656 C 2970.15625 1733.4375 2958.863281 1721.042969 2949.804688 1706.921875 C 2937.484375 1687.710938 2912.21875 1658.253906 2909.417969 1635.398438 C 2957.167969 1654.921875 3022.347656 1659.425781 3068.289062 1633.90625 C 3097.507812 1617.671875 3129.476562 1599.175781 3155.703125 1578.601562 C 3176.875 1561.996094 3175.195312 1553.507812 3183.550781 1532.054688 C 3200.335938 1488.964844 3251.902344 1471.921875 3256.332031 1422.890625 C 3257.914062 1405.40625 3248.984375 1387.164062 3252.050781 1369.714844 C 3256.59375 1343.824219 3275.722656 1325.792969 3292.785156 1307.359375 C 3324.914062 1272.652344 3327.507812 1251.273438 3338.785156 1210.226562 C 3348.757812 1173.90625 3394.203125 1155.699219 3404.511719 1119.3125 C 3414.246094 1084.957031 3402.917969 1064.742188 3426.128906 1031.207031 C 3448.839844 998.394531 3451.003906 971.589844 3465.355469 936.652344 C 3477.058594 908.167969 3507.957031 893.355469 3517.089844 863.445312 C 3536.933594 798.449219 3600.664062 774.195312 3603.113281 699.746094 C 3607.429688 568.546875 3429.511719 522.527344 3328.121094 516.796875 Z M 2758.433594 753.761719 C 2785.28125 723.914062 2816.054688 714.035156 2850.335938 697.214844 C 2886.710938 679.363281 2924.359375 664.066406 2963.042969 651.976562 C 3088.699219 613.050781 3210.980469 611.460938 3339.597656 630.652344 C 3350.085938 632.214844 3362.652344 635.515625 3365.511719 645.726562 C 3367.773438 653.804688 3362.085938 662.378906 3354.699219 666.351562 C 3347.308594 670.324219 3338.628906 670.851562 3330.265625 671.535156 C 3176.261719 684.113281 3018.386719 717.277344 2871.859375 767.789062 C 2840.085938 778.742188 2807.558594 790.78125 2773.996094 789.066406 C 2764.097656 788.5625 2752.320312 785.21875 2749.691406 775.660156 C 2747.511719 767.742188 2752.941406 759.867188 2758.433594 753.761719 Z M 2748.394531 1353.253906 C 2723.550781 1354.6875 2698.699219 1356.828125 2673.792969 1356.398438 C 2590.828125 1354.960938 2509.566406 1335.484375 2431.21875 1308.8125 C 2425.601562 1306.902344 2416.511719 1302.425781 2415.75 1295.5 C 2414.679688 1285.695312 2438.222656 1275.136719 2445.328125 1271.109375 C 2474.539062 1254.546875 2507.359375 1234.917969 2541.597656 1226.21875 C 2573.832031 1218.035156 2604.605469 1225.832031 2635.964844 1232.476562 C 2660.710938 1237.722656 2685.457031 1242.96875 2710.203125 1248.210938 C 2764.058594 1259.625 2813.96875 1280.152344 2864.425781 1302.136719 C 2880.996094 1309.351562 2898.070312 1315.363281 2914.519531 1322.875 C 2924.203125 1327.296875 2934.011719 1331.671875 2942.921875 1337.554688 C 2946.246094 1339.75 2950.089844 1343.433594 2951.726562 1347.09375 C 2957.476562 1359.957031 2937.601562 1354.738281 2931.667969 1353.808594 C 2923.773438 1352.570312 2915.90625 1351.128906 2907.929688 1350.53125 C 2890.40625 1349.21875 2872.273438 1350.410156 2854.699219 1350.46875 C 2819.25 1350.59375 2783.789062 1351.210938 2748.394531 1353.253906 Z M 2759.125 1433.304688 C 2778.199219 1441.710938 2805.824219 1450.414062 2816.839844 1469.777344 C 2819.699219 1474.804688 2820.886719 1481.472656 2818.53125 1485.761719 C 2817.101562 1488.363281 2814.367188 1490.085938 2809.90625 1490.039062 C 2720.15625 1489.050781 2628.328125 1490.660156 2541.492188 1464.566406 C 2487.257812 1448.265625 2436.914062 1418.683594 2380.195312 1411.019531 C 2362.625 1408.648438 2345.765625 1407.859375 2328.183594 1409.25 C 2284.875 1412.675781 2243.347656 1426.351562 2201.378906 1436.613281 C 2182.039062 1441.339844 2161.554688 1445.066406 2141.808594 1449.5625 C 2122.5625 1453.945312 2103.023438 1462.199219 2082.964844 1460.699219 C 2076.070312 1460.1875 2064.964844 1455.660156 2071 1446.875 C 2079.183594 1434.960938 2101.054688 1428.65625 2113.375 1422.050781 C 2148.378906 1403.285156 2183.125 1381.984375 2218.988281 1364.089844 C 2253.828125 1346.710938 2288.878906 1328.085938 2326.914062 1318.679688 C 2366.222656 1308.960938 2407.375 1316.972656 2445.507812 1328.054688 C 2527.957031 1352.027344 2608.628906 1382.503906 2690.460938 1408.539062 C 2713.648438 1415.914062 2736.839844 1423.484375 2759.128906 1433.308594 Z M 2726.375 1221.289062 C 2706.539062 1219.792969 2686.777344 1217.621094 2666.902344 1216.714844 C 2647.699219 1215.839844 2627.839844 1215.148438 2609.769531 1207.902344 C 2599.359375 1203.726562 2596.6875 1195.023438 2603.179688 1186.125 C 2615.320312 1169.480469 2633.652344 1156.4375 2649.726562 1143.8125 C 2666.839844 1130.367188 2684.984375 1117.863281 2704.992188 1109.125 C 2709.933594 1106.96875 2715.039062 1105.234375 2720.34375 1104.054688 C 2734.421875 1100.933594 2749.320312 1104.765625 2762.863281 1108.519531 C 2800.105469 1118.84375 2836.933594 1131.304688 2871.308594 1149.164062 C 2886.515625 1157.066406 2901.171875 1165.839844 2916.054688 1174.351562 C 2924.25 1179.035156 2932.410156 1183.828125 2940.09375 1189.324219 C 2944.234375 1192.285156 2965.066406 1203.859375 2955.355469 1210.476562 C 2951.15625 1213.335938 2945.382812 1212.390625 2940.609375 1212.617188 C 2934.269531 1212.914062 2927.9375 1213.917969 2921.636719 1214.703125 C 2906.996094 1216.527344 2892.371094 1218.492188 2877.71875 1220.222656 C 2870.730469 1221.046875 2863.722656 1221.742188 2856.707031 1222.3125 C 2813.328125 1225.84375 2769.726562 1224.554688 2726.371094 1221.289062 Z M 2859.632812 1095.78125 C 2834.84375 1096.863281 2810.007812 1095.339844 2785.324219 1093.101562 C 2768.085938 1091.539062 2749.835938 1083.324219 2746.019531 1064.8125 C 2744.234375 1056.15625 2745.855469 1047.277344 2749.925781 1039.496094 C 2756.636719 1026.679688 2767.628906 1019.625 2780.253906 1016.59375 C 2788.15625 1014.695312 2796.695312 1014.371094 2805.222656 1015.191406 C 2820.457031 1016.660156 2835.121094 1021.582031 2849.625 1026.46875 C 2868.269531 1032.753906 2887.125 1039.089844 2904.230469 1048.984375 C 2912.667969 1053.867188 2933.792969 1059.546875 2931.066406 1071.707031 C 2928.320312 1083.960938 2911.410156 1087.914062 2900.816406 1090.535156 C 2887.371094 1093.863281 2873.445312 1095.183594 2859.636719 1095.785156 Z M 2821.148438 985.632812 C 2810.089844 987.40625 2789.335938 990.488281 2779.863281 982.417969 C 2774.53125 977.871094 2774.003906 964.359375 2772.773438 957.96875 C 2770.851562 947.96875 2769.394531 937.84375 2769.277344 927.640625 C 2769.195312 920.113281 2769.941406 912.242188 2773.941406 905.867188 C 2776.503906 901.78125 2780.253906 898.601562 2784.535156 896.324219 C 2787.089844 894.964844 2789.835938 893.925781 2792.632812 893.207031 C 2800.097656 891.28125 2807.9375 891.421875 2815.621094 892.027344 C 2839.769531 893.917969 2864.261719 900.566406 2887.21875 908.050781 C 2901.480469 912.699219 2917.488281 917.058594 2927.183594 929.402344 C 2929.140625 931.894531 2930.429688 935.085938 2929.972656 938.226562 C 2928.648438 947.285156 2914.582031 953.898438 2907.460938 957.542969 C 2897.695312 962.542969 2887.324219 966.210938 2877.085938 970.09375 C 2858.980469 976.96875 2840.296875 982.566406 2821.148438 985.632812 Z M 2772.300781 831.011719 C 2783.082031 832.394531 2812.488281 837.1875 2810.242188 853.601562 C 2807.734375 871.898438 2793.167969 879.15625 2775.960938 877.519531 C 2762.886719 876.273438 2750.25 871.3125 2738.640625 865.390625 C 2730.742188 861.359375 2717.34375 856.832031 2716.898438 846.75 C 2716.808594 844.699219 2717.253906 842.417969 2718.390625 839.867188 C 2725.652344 823.5625 2758.671875 829.265625 2772.300781 831.011719 Z M 2558.097656 856.359375 C 2592.230469 814.535156 2639.855469 783.898438 2692.066406 770.171875 C 2731.828125 759.722656 2720.347656 798.21875 2701.347656 815.8125 C 2683.738281 832.113281 2659.597656 841.511719 2636.871094 848.109375 C 2620.847656 852.757812 2604.875 857.578125 2588.78125 861.980469 C 2584.511719 863.148438 2565.25 869.160156 2557.46875 867.242188 C 2553.484375 866.261719 2552.511719 863.207031 2558.097656 856.359375 Z M 2018.527344 1396.929688 C 2032.789062 1360.058594 2070.351562 1308.527344 2077.339844 1299.464844 C 2141.703125 1216.039062 2227.285156 1150.871094 2305.222656 1080.953125 C 2392.277344 1002.855469 2492.417969 930.265625 2599.070312 883.671875 C 2650.539062 861.1875 2713.910156 847.523438 2744.164062 908.085938 C 2765.542969 950.882812 2753.734375 1007.6875 2726.273438 1044.976562 C 2688.957031 1095.65625 2626.824219 1132.878906 2576.011719 1168.738281 C 2517.769531 1209.839844 2456.855469 1247.707031 2391.097656 1275.625 C 2296.976562 1315.585938 2197.558594 1343.9375 2108.351562 1394.871094 C 2086.792969 1407.179688 1990.097656 1470.441406 2018.527344 1396.929688 Z M 2010.636719 1502.457031 C 2010.675781 1502.058594 2010.734375 1501.65625 2010.820312 1501.253906 C 2014.183594 1484.875 2052.953125 1489.371094 2064.820312 1487.777344 C 2082.078125 1485.457031 2100.433594 1485.566406 2117.25 1482.195312 C 2140.210938 1477.585938 2162.980469 1471.578125 2185.796875 1466.285156 C 2231.480469 1455.683594 2277.167969 1445.082031 2322.855469 1434.484375 C 2367.652344 1424.089844 2413.855469 1436.472656 2457.230469 1449.195312 C 2487.421875 1458.046875 2514.480469 1471.722656 2543.585938 1482.460938 C 2594.699219 1501.324219 2647.625 1514.628906 2700.695312 1526.648438 C 2728.097656 1532.855469 2755.769531 1537.785156 2783.246094 1543.632812 C 2807.570312 1548.8125 2838.152344 1552.574219 2860.070312 1564.878906 C 2872.863281 1572.058594 2875.441406 1585.265625 2859.367188 1589.242188 C 2847.175781 1592.253906 2834.390625 1590.800781 2821.996094 1591.324219 C 2793.085938 1592.554688 2764.160156 1593.410156 2735.226562 1593.445312 C 2673.625 1593.515625 2613.910156 1574.460938 2552.78125 1568.402344 C 2478.8125 1561.074219 2403.519531 1567.484375 2329.710938 1559.257812 C 2255.621094 1550.996094 2179.738281 1549.386719 2106.050781 1540.40625 C 2091.175781 1538.597656 2008.320312 1526.988281 2010.636719 1502.457031 Z M 2863.699219 1875.210938 C 2865.320312 1882.207031 2860.707031 1889.042969 2853.632812 1890.289062 C 2842.925781 1892.175781 2831.035156 1898.082031 2827.375 1903.304688 C 2825.636719 1905.785156 2822.613281 1906.914062 2819.863281 1905.636719 C 2739.089844 1868.21875 2655.90625 1841.339844 2570.226562 1816.867188 L 2563.164062 1814.84375 C 2553.789062 1812.167969 2544.390625 1809.679688 2535 1807.191406 C 2505.371094 1799.347656 2477.09375 1788.582031 2447.808594 1779.742188 C 2441.171875 1777.742188 2416.386719 1775.914062 2412.105469 1770.828125 C 2395.660156 1751.292969 2377.566406 1732.867188 2359.703125 1714.714844 C 2355.941406 1710.890625 2351.78125 1707.085938 2347.929688 1703.089844 C 2343.25 1698.230469 2346.3125 1689.984375 2353.019531 1689.285156 C 2383.050781 1686.160156 2416.863281 1689.375 2446.3125 1688.683594 C 2481.542969 1687.859375 2516.882812 1687.730469 2551.925781 1691.925781 C 2615.652344 1699.554688 2676.722656 1720.832031 2736.167969 1744.1875 C 2781.003906 1761.804688 2874.375 1767.199219 2891.246094 1822.355469 C 2892.632812 1826.898438 2891.808594 1832.183594 2888.0625 1835.109375 C 2878.160156 1842.855469 2863.714844 1829.355469 2858.085938 1844.945312 C 2857.464844 1846.675781 2860.761719 1862.542969 2863.695312 1875.210938 Z M 2360.019531 1935.316406 C 2287.910156 1914.027344 2227.183594 1853.390625 2173.609375 1799.90625 L 2166.75 1793.0625 C 2152.925781 1779.289062 2140.03125 1764.015625 2126.375 1747.84375 C 2103.78125 1721.085938 2077.871094 1698.375 2054.136719 1673.359375 C 2075.890625 1643.695312 2123.347656 1661.132812 2153.222656 1662.53125 C 2187.859375 1664.148438 2218.253906 1677.855469 2251.746094 1684.277344 C 2273.660156 1688.476562 2294.957031 1685.617188 2314.726562 1697.695312 C 2330.746094 1707.480469 2342.324219 1723.375 2355.214844 1736.65625 C 2382.152344 1764.410156 2409.328125 1793.265625 2429.371094 1826.5625 C 2439.925781 1844.09375 2450.40625 1864.554688 2451.738281 1885.257812 C 2454.949219 1935.1875 2398.042969 1946.539062 2360.023438 1935.316406 Z M 2558.675781 1617.011719 C 2567.03125 1607.03125 2582.378906 1607.878906 2595.238281 1609.875 C 2639.675781 1616.765625 2847.84375 1645.414062 2848.207031 1708.730469 C 2848.410156 1744.148438 2771.945312 1714.207031 2748.929688 1709.101562 C 2697.582031 1697.71875 2646.890625 1683.542969 2596.597656 1668.210938 C 2584.472656 1664.515625 2571.847656 1660.4375 2562.964844 1651.398438 C 2554.085938 1642.355469 2550.542969 1626.726562 2558.679688 1617.007812 Z M 1984.355469 1597.539062 C 1979.195312 1582.871094 1983.367188 1568.660156 1994.152344 1560.773438 C 1998.164062 1557.839844 2003.09375 1555.777344 2008.796875 1554.894531 C 2028.515625 1551.835938 2049.785156 1557.359375 2069.253906 1560.621094 C 2129.402344 1570.707031 2189.796875 1574.25 2250.480469 1579.730469 C 2290.445312 1583.339844 2330.605469 1583.011719 2370.480469 1588.078125 C 2408.015625 1592.847656 2454.097656 1600.191406 2481.832031 1628.601562 C 2499.488281 1646.6875 2468.78125 1652.507812 2454.683594 1652.332031 C 2436.988281 1652.109375 2419.339844 1646.707031 2401.886719 1646.707031 C 2352.085938 1646.707031 2302.703125 1654.316406 2252.984375 1656.0625 C 2205.199219 1657.746094 2159.84375 1646.742188 2112.480469 1643.832031 C 2080.339844 1641.855469 2047.410156 1640.929688 2017.136719 1628.714844 C 2002.71875 1622.898438 1989.511719 1612.203125 1984.355469 1597.539062 Z M 2404.125 2571.335938 C 2382.535156 2562.019531 2347.34375 2534.109375 2305.796875 2452.949219 C 2287.667969 2417.539062 2273.875 2380.109375 2263.089844 2341.816406 C 2212.105469 2160.742188 2147.570312 1983.488281 2070.210938 1812.019531 C 2056.136719 1780.820312 2029.789062 1728.140625 2048.988281 1694.601562 C 2080.261719 1722.316406 2107.519531 1758.230469 2138.761719 1787.324219 C 2169.574219 1816.015625 2200.441406 1845.480469 2222.417969 1881.769531 C 2252.898438 1932.105469 2264.03125 1991.386719 2276.113281 2048.976562 C 2294.71875 2137.671875 2316.808594 2225.636719 2342.300781 2312.605469 C 2361.667969 2378.671875 2376.734375 2446.527344 2403.429688 2510.183594 C 2404.160156 2511.925781 2413.480469 2537.789062 2420.1875 2556.429688 C 2423.742188 2566.3125 2413.769531 2575.5 2404.125 2571.335938 Z M 2498.648438 2784.378906 C 2491.667969 2794.429688 2482.765625 2803.585938 2471.5 2808.355469 C 2460.230469 2813.125 2446.308594 2812.816406 2436.605469 2805.359375 C 2422.527344 2794.542969 2421.773438 2773.972656 2422.28125 2756.222656 C 2423.222656 2723.484375 2418.023438 2649.222656 2445.203125 2625.027344 C 2473.414062 2599.917969 2509.402344 2666.710938 2515.203125 2687.914062 C 2524.089844 2720.410156 2517.859375 2756.707031 2498.648438 2784.378906 Z M 2522.230469 2509.105469 C 2521.699219 2526.21875 2523.148438 2542.621094 2514.179688 2558.171875 C 2498.992188 2584.507812 2465.398438 2591.785156 2445.878906 2565.910156 C 2427.179688 2541.121094 2420.164062 2508.253906 2410.949219 2479.195312 C 2400.71875 2446.941406 2400.941406 2412.320312 2388.4375 2380.835938 C 2350.632812 2285.652344 2330.488281 2200.472656 2309.164062 2110.296875 C 2293 2041.972656 2276.351562 1971.601562 2251.292969 1896.578125 C 2255.410156 1908.90625 2293.242188 1925.867188 2304.414062 1931.90625 C 2315.792969 1938.058594 2338.796875 1942.660156 2349.265625 1952.867188 C 2351.210938 1954.761719 2352.71875 1956.847656 2353.644531 1959.171875 C 2398.726562 2072.570312 2441.253906 2186.832031 2483.648438 2301.246094 C 2499.324219 2343.558594 2520.496094 2383.691406 2527.746094 2428.742188 C 2532.199219 2456.410156 2523.082031 2481.667969 2522.230469 2509.097656 Z M 2510.335938 2317.972656 C 2495.40625 2275.828125 2480.132812 2233.800781 2464.507812 2191.910156 C 2448.980469 2150.292969 2433.101562 2108.804688 2416.875 2067.449219 C 2404.898438 2036.914062 2383.726562 2007.589844 2377.082031 1975.203125 C 2371.621094 1948.589844 2399.148438 1953.605469 2418.367188 1962.433594 C 2423.808594 1964.929688 2428.582031 1967.734375 2431.753906 1970.210938 C 2452.871094 1986.710938 2465.082031 2012.402344 2480.058594 2033.992188 C 2506.738281 2072.453125 2532.613281 2111.46875 2557.902344 2150.855469 C 2583.898438 2191.335938 2609.269531 2232.21875 2634.324219 2273.292969 C 2646.273438 2292.882812 2657.230469 2313.519531 2670.160156 2332.464844 C 2684.25 2353.113281 2700.246094 2367.523438 2702.703125 2393.996094 C 2704.804688 2416.664062 2698.066406 2439.71875 2690.28125 2460.742188 C 2681.246094 2485.136719 2664.40625 2504.242188 2636.699219 2498.359375 C 2606.039062 2491.839844 2582.664062 2462.527344 2559.757812 2444.167969 C 2526.78125 2417.734375 2523.894531 2356.257812 2510.335938 2317.972656 Z M 2669.726562 2742.367188 C 2658.40625 2752.476562 2640.976562 2753.546875 2626.847656 2748.003906 C 2612.71875 2742.460938 2601.484375 2731.308594 2592.371094 2719.167969 C 2569.929688 2689.265625 2558.304688 2652.28125 2554.171875 2615.125 C 2551.414062 2590.355469 2551.855469 2565.375 2553.695312 2540.558594 C 2555.117188 2521.402344 2553.464844 2486.125 2582.699219 2504.367188 C 2590.207031 2509.058594 2595.691406 2516.320312 2600.820312 2523.535156 C 2633.671875 2569.777344 2659.207031 2621.210938 2676.183594 2675.335938 C 2683.304688 2698.035156 2687.46875 2726.519531 2669.726562 2742.367188 Z M 2812.785156 2727.566406 C 2801.238281 2735.449219 2786.097656 2725.632812 2775.871094 2716.097656 C 2748.265625 2690.351562 2721.652344 2662.6875 2703.800781 2629.429688 C 2690.5625 2604.765625 2657.070312 2483.460938 2721.632812 2502.125 C 2734.976562 2505.984375 2745.367188 2516.332031 2754.339844 2526.933594 C 2795.082031 2575.085938 2819.179688 2637.058594 2821.667969 2700.085938 C 2822.066406 2710.148438 2821.105469 2721.886719 2812.785156 2727.566406 Z M 2892.160156 2504.335938 C 2866.335938 2517.402344 2834.128906 2512.871094 2809.097656 2498.34375 C 2784.066406 2483.816406 2765.253906 2460.5625 2749.839844 2436.0625 C 2725.046875 2396.652344 2761.097656 2386.042969 2793.878906 2387.613281 C 2833.789062 2389.53125 2873.121094 2406.066406 2901.652344 2434.183594 C 2909.574219 2441.992188 2916.984375 2451.234375 2918.605469 2462.242188 C 2921.183594 2479.761719 2907.960938 2496.34375 2892.15625 2504.335938 Z M 2936.636719 2396.125 C 2882.726562 2346.691406 2808.996094 2317.152344 2739.773438 2355.644531 C 2733.226562 2359.28125 2726.671875 2363.589844 2719.207031 2364.167969 C 2702.8125 2365.441406 2698.890625 2344.324219 2692.300781 2333.429688 C 2675.035156 2304.890625 2657.695312 2276.402344 2640.273438 2247.957031 C 2625.851562 2224.414062 2455 1936.011719 2439.414062 1945.324219 C 2444.632812 1942.191406 2449.386719 1938.554688 2453.449219 1934.34375 C 2457.589844 1930.042969 2460.925781 1925.273438 2463.589844 1920.164062 C 2480.253906 1930.304688 2495.386719 1939.070312 2510.011719 1947.507812 C 2555.917969 1973.996094 2599.777344 2002.1875 2638.757812 2038.414062 C 2659.167969 2057.390625 2679.433594 2076.609375 2699.703125 2095.859375 C 2746.921875 2140.671875 2794.632812 2184.726562 2843.792969 2227.402344 C 2880.414062 2259.195312 2914.421875 2285.1875 2932.648438 2332.113281 C 2937.589844 2344.832031 2941.054688 2358.101562 2943.085938 2371.59375 C 2943.570312 2374.804688 2943.152344 2384.804688 2943.386719 2392.96875 C 2943.488281 2396.53125 2939.261719 2398.53125 2936.636719 2396.121094 Z M 2974.828125 2216.648438 C 2963.421875 2229.507812 2947.234375 2239.148438 2930.542969 2235.050781 C 2913.851562 2230.949219 2900.601562 2216.503906 2896.273438 2199.871094 C 2891.796875 2182.632812 2898.359375 2163.429688 2912.570312 2152.699219 C 2945.617188 2127.746094 3005.066406 2182.558594 2974.828125 2216.648438 Z M 2994.394531 2146.390625 C 2970.21875 2141.96875 2950.132812 2116.128906 2923.203125 2111.535156 C 2893.503906 2106.46875 2871.441406 2122.449219 2857.671875 2148.074219 C 2847.414062 2167.167969 2852.105469 2187.519531 2859.886719 2206.316406 C 2861.871094 2211.105469 2856.617188 2215.753906 2852.257812 2212.945312 C 2829.125 2198.015625 2804.222656 2167.839844 2786.207031 2151.328125 C 2761.402344 2128.601562 2736.910156 2105.53125 2712.5 2082.375 C 2692.171875 2063.09375 2671.875 2043.816406 2651.410156 2024.808594 C 2604.097656 1980.183594 2548.238281 1946.589844 2491.625 1915.324219 C 2485.355469 1911.867188 2478.933594 1908.277344 2474.363281 1902.769531 C 2461 1886.667969 2468.070312 1842.703125 2459.871094 1816.878906 C 2457.808594 1810.386719 2464.015625 1804.359375 2470.546875 1806.277344 C 2550.988281 1829.875 2632.078125 1850.53125 2711 1879.296875 C 2736.109375 1888.449219 2760.925781 1898.367188 2785.878906 1907.902344 C 2798.957031 1912.902344 2814.289062 1915.992188 2825.824219 1924.269531 C 2847.808594 1940.054688 2860.476562 1966.765625 2883.222656 1983.484375 C 2906.535156 2000.625 2932.5625 2014.289062 2952.515625 2035.660156 C 2953.058594 2036.246094 2953.597656 2036.832031 2954.132812 2037.421875 C 2977.269531 2063.125 3001.761719 2110.855469 2994.398438 2146.390625 Z M 2931.125 1869.398438 C 2945.648438 1866.984375 2960.289062 1874.03125 2971.40625 1883.683594 C 2991.566406 1901.1875 3009.539062 1938.742188 3000.734375 1966.054688 C 2989.863281 1999.773438 2959.316406 1983.167969 2933.324219 1966.632812 C 2915.621094 1955.367188 2900.925781 1937.425781 2898.824219 1916.546875 C 2896.726562 1895.667969 2910.425781 1872.839844 2931.128906 1869.398438 Z M 3109.054688 1497.28125 C 3047.085938 1516.886719 2978.902344 1507.878906 2918.097656 1484.925781 C 2881.332031 1471.042969 2846.65625 1452.28125 2813.171875 1431.839844 C 2801.535156 1424.738281 2769.074219 1411.457031 2762.824219 1399.6875 C 2753.957031 1382.988281 2777.4375 1384.5 2789.441406 1383.546875 C 2862.433594 1377.734375 2936.570312 1387.445312 3005.738281 1411.421875 C 3043.824219 1424.625 3080.421875 1442.167969 3114.441406 1463.808594 C 3120.65625 1467.765625 3127.496094 1473.089844 3127.445312 1480.464844 C 3127.386719 1489.375 3117.550781 1494.59375 3109.054688 1497.28125 Z M 3201.402344 1329.59375 C 3199.515625 1339.027344 3187.617188 1341.871094 3178.035156 1342.761719 C 3109.304688 1349.128906 3037.03125 1354.957031 2973.972656 1326.886719 C 2960.054688 1320.691406 2848.144531 1259.179688 2851.644531 1249.152344 C 2854.882812 1239.871094 2925.640625 1238.050781 2935.960938 1237.484375 C 2964.207031 1235.9375 2992.691406 1237.128906 3020.414062 1243.046875 C 3056.230469 1250.6875 3089.90625 1265.933594 3123.257812 1281.070312 C 3143.28125 1290.15625 3163.304688 1299.246094 3183.332031 1308.335938 C 3192.515625 1312.503906 3203.378906 1319.703125 3201.402344 1329.59375 Z M 3291.8125 1200.777344 C 3290.851562 1206.984375 3283.574219 1209.699219 3277.441406 1211.066406 C 3171.476562 1234.660156 3058.820312 1214.230469 2963.578125 1163.761719 C 2939.445312 1150.96875 2905 1134.675781 2887.839844 1113.25 C 2949.441406 1094.046875 3029.71875 1102.867188 3092.023438 1114.675781 C 3158.722656 1127.316406 3223.265625 1151.566406 3281.425781 1186.640625 C 3286.753906 1189.855469 3292.761719 1194.628906 3291.808594 1200.777344 Z M 3280.621094 1037.460938 C 3213.90625 1036.492188 3147.683594 1049.207031 3080.976562 1050.585938 C 3048.789062 1051.253906 3016.289062 1048.988281 2984.890625 1041.59375 C 2969.273438 1037.917969 2898.007812 1019.402344 2895.621094 999.5625 C 2893.394531 981.058594 2966.292969 957.984375 2980.929688 953.75 C 3014.023438 944.179688 3048.652344 940.203125 3083.058594 940.578125 C 3150.078125 941.308594 3215.902344 957.597656 3280.410156 975.792969 C 3314.5 985.410156 3349.71875 996.296875 3375.765625 1020.300781 C 3349.9375 1040.734375 3313.554688 1037.941406 3280.621094 1037.460938 Z M 3400.304688 857.328125 C 3308.320312 870.027344 3216.050781 882.75 3123.203125 883.957031 C 3049.871094 884.910156 2975.972656 878.558594 2904.960938 859.601562 C 2895.121094 856.976562 2857.347656 851.390625 2852.109375 842.703125 C 2846.394531 833.214844 2864.042969 818.722656 2871.652344 812.574219 C 2893.105469 795.234375 2920.871094 786.628906 2947.316406 780.429688 C 3099.558594 744.734375 3262.691406 757.0625 3407.839844 815.234375 C 3418.136719 819.363281 3430.09375 826.269531 3429.738281 837.355469 C 3429.316406 850.300781 3413.136719 855.558594 3400.304688 857.328125 Z M 3400.304688 857.328125 " fill-opacity="1" fill-rule="nonzero"/><path fill="#000000" d="M 421.53125 516.796875 C 888.621094 490.398438 1296.390625 801.578125 1594.324219 1129.46875 C 1599.074219 1134.699219 1603.808594 1139.941406 1608.523438 1145.203125 C 1644.09375 1184.890625 1680.523438 1223.820312 1716.523438 1263.140625 C 1762.816406 1313.6875 1819.5 1360.222656 1845.628906 1425.4375 C 1874.585938 1497.730469 1827.542969 1593.53125 1786.25 1674.742188 C 1771.207031 1704.316406 1465.484375 2537.355469 1465.648438 2609.664062 C 1465.722656 2642.21875 1476.109375 2682.097656 1443.050781 2703.917969 C 1410.230469 2725.585938 1411.679688 2680.414062 1375.789062 2695.527344 C 1322.820312 2717.832031 1381.070312 2801.089844 1346.582031 2843.769531 C 1283.84375 2921.414062 1235.789062 2815.4375 1188.617188 2789.4375 C 1158.535156 2772.855469 1147.566406 2796.4375 1119.9375 2803.832031 C 1087.261719 2812.582031 1086.222656 2786.988281 1062.519531 2772.757812 C 991.421875 2730.074219 945.535156 2807.863281 925.535156 2866.109375 C 913.46875 2901.246094 905.746094 2938.28125 902.242188 2975.257812 C 898.058594 3019.375 907.773438 3063.964844 896.175781 3107.386719 C 888.140625 3137.480469 878.425781 3206.777344 853.59375 3227.191406 C 814.414062 3259.402344 798.464844 3201.8125 793.148438 3172.421875 C 785.765625 3131.609375 789.160156 3090.328125 797.835938 3050.015625 C 804.828125 3017.511719 825.691406 2990.296875 838.605469 2959.351562 C 866.871094 2891.648438 880.367188 2818.9375 893.601562 2747.132812 C 900.257812 2710.992188 903.585938 2678.058594 894.753906 2642.125 C 887.394531 2612.183594 868.386719 2589.65625 856.882812 2561.191406 C 846.398438 2535.253906 856.5625 2536.46875 823.53125 2533.285156 C 796.695312 2530.695312 778.347656 2533.09375 765.332031 2506.074219 C 741.785156 2457.195312 777.464844 2394.496094 773.132812 2344.5 C 768.464844 2290.59375 761.171875 2269.105469 712.25 2247.273438 C 643.761719 2216.707031 682.671875 2164.933594 708.074219 2115.742188 C 716.960938 2098.535156 728.027344 2085.082031 725.546875 2067.324219 C 723.257812 2050.945312 715.527344 2039.539062 714.363281 2021.40625 C 713.242188 2003.992188 714.886719 1992.390625 707.992188 1977.429688 C 699.925781 1959.929688 690.402344 1955.160156 689.1875 1933.296875 C 687.449219 1901.96875 702.285156 1869.394531 717.789062 1843.074219 C 736.238281 1811.761719 748.160156 1777.214844 769.539062 1747.347656 C 779.492188 1733.4375 790.789062 1721.042969 799.84375 1706.921875 C 812.167969 1687.710938 837.429688 1658.253906 840.234375 1635.398438 C 792.480469 1654.921875 727.304688 1659.425781 681.363281 1633.90625 C 652.144531 1617.671875 620.175781 1599.175781 593.949219 1578.601562 C 572.773438 1561.996094 574.457031 1553.507812 566.101562 1532.054688 C 549.316406 1488.964844 497.75 1471.921875 493.320312 1422.890625 C 491.738281 1405.40625 500.667969 1387.164062 497.601562 1369.714844 C 493.054688 1343.824219 473.929688 1325.792969 456.867188 1307.359375 C 424.734375 1272.652344 422.144531 1251.273438 410.867188 1210.226562 C 400.890625 1173.90625 355.445312 1155.699219 345.140625 1119.3125 C 335.40625 1084.957031 346.734375 1064.742188 323.523438 1031.207031 C 300.8125 998.394531 298.648438 971.589844 284.292969 936.652344 C 272.589844 908.167969 241.691406 893.355469 232.5625 863.445312 C 212.71875 798.449219 148.988281 774.195312 146.539062 699.746094 C 142.222656 568.546875 320.140625 522.527344 421.53125 516.796875 Z M 991.21875 753.761719 C 964.367188 723.914062 933.597656 714.035156 899.316406 697.214844 C 862.941406 679.363281 825.292969 664.066406 786.609375 651.976562 C 660.953125 613.050781 538.671875 611.460938 410.050781 630.652344 C 399.566406 632.214844 387 635.515625 384.140625 645.726562 C 381.878906 653.804688 387.566406 662.378906 394.953125 666.351562 C 402.34375 670.324219 411.023438 670.851562 419.386719 671.535156 C 573.386719 684.113281 731.265625 717.277344 877.792969 767.789062 C 909.566406 778.742188 942.09375 790.78125 975.65625 789.066406 C 985.554688 788.5625 997.332031 785.21875 999.960938 775.660156 C 1002.140625 767.742188 996.710938 759.867188 991.214844 753.761719 Z M 1001.257812 1353.253906 C 1026.101562 1354.6875 1050.953125 1356.828125 1075.859375 1356.398438 C 1158.824219 1354.960938 1240.085938 1335.484375 1318.433594 1308.8125 C 1324.050781 1306.902344 1333.140625 1302.425781 1333.898438 1295.5 C 1334.972656 1285.695312 1311.425781 1275.136719 1304.324219 1271.109375 C 1275.109375 1254.546875 1242.289062 1234.917969 1208.050781 1226.21875 C 1175.820312 1218.035156 1145.046875 1225.832031 1113.683594 1232.476562 C 1088.941406 1237.722656 1064.191406 1242.96875 1039.445312 1248.210938 C 985.59375 1259.625 935.683594 1280.152344 885.226562 1302.136719 C 868.65625 1309.351562 851.578125 1315.363281 835.132812 1322.875 C 825.449219 1327.296875 815.640625 1331.671875 806.730469 1337.554688 C 803.402344 1339.75 799.5625 1343.433594 797.925781 1347.09375 C 792.175781 1359.957031 812.046875 1354.738281 817.980469 1353.808594 C 825.875 1352.570312 833.742188 1351.128906 841.722656 1350.53125 C 859.246094 1349.21875 877.378906 1350.410156 894.953125 1350.46875 C 930.398438 1350.59375 965.863281 1351.210938 1001.253906 1353.253906 Z M 990.523438 1433.304688 C 971.453125 1441.710938 943.824219 1450.414062 932.8125 1469.777344 C 929.953125 1474.804688 928.761719 1481.472656 931.121094 1485.761719 C 932.550781 1488.363281 935.285156 1490.085938 939.746094 1490.039062 C 1029.496094 1489.050781 1121.320312 1490.660156 1208.15625 1464.566406 C 1262.394531 1448.265625 1312.738281 1418.683594 1369.457031 1411.019531 C 1387.023438 1408.648438 1403.886719 1407.859375 1421.46875 1409.25 C 1464.777344 1412.675781 1506.304688 1426.351562 1548.273438 1436.613281 C 1567.613281 1441.339844 1588.097656 1445.066406 1607.84375 1449.5625 C 1627.089844 1453.945312 1646.628906 1462.199219 1666.6875 1460.699219 C 1673.582031 1460.1875 1684.6875 1455.660156 1678.652344 1446.875 C 1670.46875 1434.960938 1648.597656 1428.65625 1636.277344 1422.050781 C 1601.273438 1403.285156 1566.523438 1381.984375 1530.660156 1364.089844 C 1495.824219 1346.710938 1460.769531 1328.085938 1422.734375 1318.679688 C 1383.429688 1308.960938 1342.277344 1316.972656 1304.144531 1328.054688 C 1221.695312 1352.027344 1141.023438 1382.503906 1059.191406 1408.539062 C 1036.003906 1415.914062 1012.8125 1423.484375 990.523438 1433.308594 Z M 1023.277344 1221.289062 C 1043.113281 1219.792969 1062.871094 1217.621094 1082.75 1216.714844 C 1101.949219 1215.839844 1121.808594 1215.148438 1139.882812 1207.902344 C 1150.292969 1203.726562 1152.964844 1195.023438 1146.472656 1186.125 C 1134.332031 1169.480469 1116 1156.4375 1099.925781 1143.8125 C 1082.8125 1130.367188 1064.667969 1117.863281 1044.65625 1109.125 C 1039.714844 1106.96875 1034.613281 1105.234375 1029.308594 1104.054688 C 1015.230469 1100.933594 1000.332031 1104.765625 986.789062 1108.519531 C 949.542969 1118.84375 912.71875 1131.304688 878.34375 1149.164062 C 863.136719 1157.066406 848.480469 1165.839844 833.597656 1174.351562 C 825.402344 1179.035156 817.242188 1183.828125 809.558594 1189.324219 C 805.414062 1192.285156 784.585938 1203.859375 794.296875 1210.476562 C 798.496094 1213.335938 804.269531 1212.390625 809.042969 1212.617188 C 815.382812 1212.914062 821.714844 1213.917969 828.015625 1214.703125 C 842.65625 1216.527344 857.28125 1218.492188 871.933594 1220.222656 C 878.921875 1221.046875 885.929688 1221.742188 892.941406 1222.3125 C 936.324219 1225.84375 979.925781 1224.554688 1023.28125 1221.289062 Z M 890.019531 1095.78125 C 914.808594 1096.863281 939.640625 1095.339844 964.328125 1093.101562 C 981.5625 1091.539062 999.8125 1083.324219 1003.632812 1064.8125 C 1005.417969 1056.15625 1003.796875 1047.277344 999.722656 1039.496094 C 993.015625 1026.679688 982.019531 1019.625 969.398438 1016.59375 C 961.496094 1014.695312 952.957031 1014.371094 944.429688 1015.191406 C 929.195312 1016.660156 914.53125 1021.582031 900.027344 1026.46875 C 881.382812 1032.753906 862.527344 1039.089844 845.421875 1048.984375 C 836.984375 1053.867188 815.859375 1059.546875 818.585938 1071.707031 C 821.332031 1083.960938 838.242188 1087.914062 848.835938 1090.535156 C 862.28125 1093.863281 876.207031 1095.183594 890.015625 1095.785156 Z M 928.503906 985.632812 C 939.5625 987.40625 960.316406 990.488281 969.785156 982.417969 C 975.121094 977.871094 975.648438 964.359375 976.875 957.96875 C 978.796875 947.96875 980.257812 937.84375 980.375 927.640625 C 980.457031 920.113281 979.707031 912.242188 975.710938 905.867188 C 973.148438 901.78125 969.394531 898.601562 965.117188 896.324219 C 962.5625 894.964844 959.8125 893.925781 957.019531 893.207031 C 949.554688 891.28125 941.714844 891.421875 934.03125 892.027344 C 909.882812 893.917969 885.386719 900.566406 862.433594 908.050781 C 848.171875 912.699219 832.164062 917.058594 822.46875 929.402344 C 820.507812 931.894531 819.222656 935.085938 819.679688 938.226562 C 821.003906 947.285156 835.070312 953.898438 842.191406 957.542969 C 851.957031 962.542969 862.328125 966.210938 872.566406 970.09375 C 890.667969 976.96875 909.355469 982.566406 928.503906 985.632812 Z M 977.351562 831.011719 C 966.570312 832.394531 937.164062 837.1875 939.410156 853.601562 C 941.914062 871.898438 956.480469 879.15625 973.6875 877.519531 C 986.761719 876.273438 999.402344 871.3125 1011.007812 865.390625 C 1018.90625 861.359375 1032.308594 856.832031 1032.75 846.75 C 1032.84375 844.699219 1032.398438 842.417969 1031.261719 839.867188 C 1023.996094 823.5625 990.980469 829.265625 977.351562 831.011719 Z M 1191.554688 856.359375 C 1157.421875 814.535156 1109.796875 783.898438 1057.585938 770.171875 C 1017.820312 759.722656 1029.304688 798.21875 1048.304688 815.8125 C 1065.910156 832.113281 1090.054688 841.511719 1112.78125 848.109375 C 1128.804688 852.757812 1144.777344 857.578125 1160.871094 861.980469 C 1165.136719 863.148438 1184.402344 869.160156 1192.183594 867.242188 C 1196.167969 866.261719 1197.140625 863.207031 1191.550781 856.359375 Z M 1731.121094 1396.929688 C 1716.863281 1360.058594 1679.300781 1308.527344 1672.308594 1299.464844 C 1607.949219 1216.039062 1522.367188 1150.871094 1444.429688 1080.953125 C 1357.375 1002.855469 1257.234375 930.265625 1150.582031 883.671875 C 1099.113281 861.1875 1035.742188 847.523438 1005.484375 908.085938 C 984.109375 950.882812 995.917969 1007.6875 1023.378906 1044.976562 C 1060.695312 1095.65625 1122.828125 1132.878906 1173.640625 1168.738281 C 1231.882812 1209.839844 1292.792969 1247.707031 1358.554688 1275.625 C 1452.671875 1315.585938 1552.09375 1343.9375 1641.300781 1394.871094 C 1662.859375 1407.179688 1759.554688 1470.441406 1731.121094 1396.929688 Z M 1739.015625 1502.457031 C 1738.976562 1502.058594 1738.914062 1501.65625 1738.832031 1501.253906 C 1735.464844 1484.875 1696.699219 1489.371094 1684.832031 1487.777344 C 1667.574219 1485.457031 1649.214844 1485.566406 1632.402344 1482.195312 C 1609.441406 1477.585938 1586.671875 1471.578125 1563.855469 1466.285156 C 1518.167969 1455.683594 1472.484375 1445.082031 1426.796875 1434.484375 C 1382 1424.089844 1335.796875 1436.472656 1292.421875 1449.195312 C 1262.230469 1458.046875 1235.171875 1471.722656 1206.066406 1482.460938 C 1154.953125 1501.324219 1102.027344 1514.628906 1048.957031 1526.648438 C 1021.554688 1532.855469 993.882812 1537.785156 966.40625 1543.632812 C 942.082031 1548.8125 911.5 1552.574219 889.582031 1564.878906 C 876.789062 1572.058594 874.210938 1585.265625 890.285156 1589.242188 C 902.476562 1592.253906 915.261719 1590.800781 927.65625 1591.324219 C 956.5625 1592.554688 985.492188 1593.410156 1014.425781 1593.445312 C 1076.023438 1593.515625 1135.742188 1574.460938 1196.871094 1568.402344 C 1270.839844 1561.074219 1346.132812 1567.484375 1419.941406 1559.257812 C 1494.03125 1550.996094 1569.914062 1549.386719 1643.601562 1540.40625 C 1658.476562 1538.597656 1741.332031 1526.988281 1739.015625 1502.457031 Z M 885.953125 1875.210938 C 884.332031 1882.207031 888.945312 1889.042969 896.015625 1890.289062 C 906.726562 1892.175781 918.617188 1898.082031 922.277344 1903.304688 C 924.015625 1905.785156 927.035156 1906.914062 929.789062 1905.636719 C 1010.5625 1868.21875 1093.742188 1841.339844 1179.425781 1816.867188 L 1186.488281 1814.84375 C 1195.859375 1812.167969 1205.261719 1809.679688 1214.652344 1807.191406 C 1244.28125 1799.347656 1272.558594 1788.582031 1301.839844 1779.742188 C 1308.480469 1777.742188 1333.265625 1775.914062 1337.546875 1770.828125 C 1353.988281 1751.292969 1372.085938 1732.867188 1389.945312 1714.714844 C 1393.707031 1710.890625 1397.871094 1707.085938 1401.722656 1703.089844 C 1406.402344 1698.230469 1403.339844 1689.984375 1396.632812 1689.285156 C 1366.597656 1686.160156 1332.785156 1689.375 1303.335938 1688.683594 C 1268.109375 1687.859375 1232.769531 1687.730469 1197.722656 1691.925781 C 1133.996094 1699.554688 1072.929688 1720.832031 1013.484375 1744.1875 C 968.648438 1761.804688 875.277344 1767.199219 858.40625 1822.355469 C 857.015625 1826.898438 857.84375 1832.183594 861.585938 1835.109375 C 871.492188 1842.855469 885.933594 1829.355469 891.5625 1844.945312 C 892.1875 1846.675781 888.890625 1862.542969 885.953125 1875.210938 Z M 1389.628906 1935.316406 C 1461.742188 1914.027344 1522.46875 1853.390625 1576.042969 1799.90625 L 1582.902344 1793.0625 C 1596.722656 1779.289062 1609.617188 1764.015625 1623.277344 1747.84375 C 1645.871094 1721.085938 1671.78125 1698.375 1695.511719 1673.359375 C 1673.757812 1643.695312 1626.300781 1661.132812 1596.429688 1662.53125 C 1561.789062 1664.148438 1531.394531 1677.855469 1497.90625 1684.277344 C 1475.988281 1688.476562 1454.695312 1685.617188 1434.925781 1697.695312 C 1418.90625 1707.480469 1407.328125 1723.375 1394.4375 1736.65625 C 1367.5 1764.410156 1340.324219 1793.265625 1320.28125 1826.5625 C 1309.726562 1844.09375 1299.246094 1864.554688 1297.914062 1885.257812 C 1294.699219 1935.1875 1351.609375 1946.539062 1389.628906 1935.316406 Z M 1190.972656 1617.011719 C 1182.621094 1607.03125 1167.273438 1607.878906 1154.410156 1609.875 C 1109.976562 1616.765625 901.808594 1645.414062 901.445312 1708.730469 C 901.242188 1744.148438 977.707031 1714.207031 1000.722656 1709.101562 C 1052.066406 1697.71875 1102.761719 1683.542969 1153.054688 1668.210938 C 1165.175781 1664.515625 1177.804688 1660.4375 1186.683594 1651.398438 C 1195.566406 1642.355469 1199.105469 1626.726562 1190.972656 1617.007812 Z M 1765.296875 1597.539062 C 1770.457031 1582.871094 1766.285156 1568.660156 1755.5 1560.773438 C 1751.484375 1557.839844 1746.558594 1555.777344 1740.855469 1554.894531 C 1721.136719 1551.835938 1699.863281 1557.359375 1680.398438 1560.621094 C 1620.25 1570.707031 1559.851562 1574.25 1499.171875 1579.730469 C 1459.203125 1583.339844 1419.046875 1583.011719 1379.171875 1588.078125 C 1341.636719 1592.847656 1295.550781 1600.191406 1267.820312 1628.601562 C 1250.164062 1646.6875 1280.867188 1652.507812 1294.964844 1652.332031 C 1312.664062 1652.109375 1330.3125 1646.707031 1347.765625 1646.707031 C 1397.566406 1646.707031 1446.949219 1654.316406 1496.667969 1656.0625 C 1544.453125 1657.746094 1589.808594 1646.742188 1637.171875 1643.832031 C 1669.308594 1641.855469 1702.242188 1640.929688 1732.515625 1628.714844 C 1746.929688 1622.898438 1760.140625 1612.203125 1765.296875 1597.539062 Z M 1345.527344 2571.335938 C 1367.117188 2562.019531 1402.308594 2534.109375 1443.855469 2452.949219 C 1461.984375 2417.539062 1475.777344 2380.109375 1486.5625 2341.816406 C 1537.546875 2160.742188 1602.082031 1983.488281 1679.4375 1812.019531 C 1693.511719 1780.820312 1719.863281 1728.140625 1700.664062 1694.601562 C 1669.390625 1722.316406 1642.128906 1758.230469 1610.890625 1787.324219 C 1580.078125 1816.015625 1549.210938 1845.480469 1527.234375 1881.769531 C 1496.753906 1932.105469 1485.617188 1991.386719 1473.535156 2048.976562 C 1454.929688 2137.671875 1432.84375 2225.636719 1407.347656 2312.605469 C 1387.980469 2378.671875 1372.914062 2446.527344 1346.222656 2510.183594 C 1345.492188 2511.925781 1336.171875 2537.789062 1329.464844 2556.429688 C 1325.910156 2566.3125 1335.882812 2575.5 1345.527344 2571.335938 Z M 1251.003906 2784.378906 C 1257.984375 2794.429688 1266.886719 2803.585938 1278.152344 2808.355469 C 1289.421875 2813.125 1303.34375 2812.816406 1313.046875 2805.359375 C 1327.125 2794.542969 1327.878906 2773.972656 1327.367188 2756.222656 C 1326.429688 2723.484375 1331.628906 2649.222656 1304.445312 2625.027344 C 1276.238281 2599.917969 1240.25 2666.710938 1234.449219 2687.914062 C 1225.5625 2720.410156 1231.792969 2756.707031 1251.003906 2784.378906 Z M 1227.421875 2509.105469 C 1227.953125 2526.21875 1226.503906 2542.621094 1235.472656 2558.171875 C 1250.660156 2584.507812 1284.253906 2591.785156 1303.773438 2565.910156 C 1322.472656 2541.121094 1329.488281 2508.253906 1338.703125 2479.195312 C 1348.933594 2446.941406 1348.710938 2412.320312 1361.214844 2380.835938 C 1399.019531 2285.652344 1419.164062 2200.472656 1440.488281 2110.296875 C 1456.652344 2041.972656 1473.300781 1971.601562 1498.359375 1896.578125 C 1494.238281 1908.90625 1456.40625 1925.867188 1445.234375 1931.90625 C 1433.859375 1938.058594 1410.855469 1942.660156 1400.386719 1952.867188 C 1398.441406 1954.761719 1396.929688 1956.847656 1396.003906 1959.171875 C 1350.925781 2072.570312 1308.394531 2186.832031 1266.003906 2301.246094 C 1250.328125 2343.558594 1229.15625 2383.691406 1221.90625 2428.742188 C 1217.453125 2456.410156 1226.570312 2481.667969 1227.421875 2509.097656 Z M 1239.316406 2317.972656 C 1254.246094 2275.828125 1269.515625 2233.800781 1285.144531 2191.910156 C 1300.671875 2150.292969 1316.550781 2108.804688 1332.773438 2067.449219 C 1344.753906 2036.914062 1365.925781 2007.589844 1372.566406 1975.203125 C 1378.027344 1948.589844 1350.5 1953.605469 1331.28125 1962.433594 C 1325.84375 1964.929688 1321.070312 1967.734375 1317.898438 1970.210938 C 1296.777344 1986.710938 1284.570312 2012.402344 1269.59375 2033.992188 C 1242.914062 2072.453125 1217.039062 2111.46875 1191.746094 2150.855469 C 1165.75 2191.335938 1140.378906 2232.21875 1115.324219 2273.292969 C 1103.378906 2292.882812 1092.421875 2313.519531 1079.488281 2332.464844 C 1065.402344 2353.113281 1049.40625 2367.523438 1046.949219 2393.996094 C 1044.847656 2416.664062 1051.585938 2439.71875 1059.371094 2460.742188 C 1068.402344 2485.136719 1085.246094 2504.242188 1112.949219 2498.359375 C 1143.613281 2491.839844 1166.988281 2462.527344 1189.894531 2444.167969 C 1222.871094 2417.734375 1225.753906 2356.257812 1239.316406 2317.972656 Z M 1079.925781 2742.367188 C 1091.246094 2752.476562 1108.675781 2753.546875 1122.804688 2748.003906 C 1136.933594 2742.460938 1148.167969 2731.308594 1157.277344 2719.167969 C 1179.722656 2689.265625 1191.347656 2652.28125 1195.480469 2615.125 C 1198.238281 2590.355469 1197.796875 2565.375 1195.957031 2540.558594 C 1194.535156 2521.402344 1196.1875 2486.125 1166.953125 2504.367188 C 1159.445312 2509.058594 1153.960938 2516.320312 1148.832031 2523.535156 C 1115.976562 2569.777344 1090.445312 2621.210938 1073.46875 2675.335938 C 1066.347656 2698.035156 1062.183594 2726.519531 1079.925781 2742.367188 Z M 936.867188 2727.566406 C 948.414062 2735.449219 963.554688 2725.632812 973.777344 2716.097656 C 1001.382812 2690.351562 1027.996094 2662.6875 1045.851562 2629.429688 C 1059.089844 2604.765625 1092.582031 2483.460938 1028.019531 2502.125 C 1014.675781 2505.984375 1004.285156 2516.332031 995.3125 2526.933594 C 954.570312 2575.085938 930.472656 2637.058594 927.984375 2700.085938 C 927.585938 2710.148438 928.546875 2721.886719 936.867188 2727.566406 Z M 857.492188 2504.335938 C 883.316406 2517.402344 915.519531 2512.871094 940.554688 2498.34375 C 965.585938 2483.816406 984.398438 2460.5625 999.808594 2436.0625 C 1024.605469 2396.652344 988.554688 2386.042969 955.773438 2387.613281 C 915.859375 2389.53125 876.53125 2406.066406 848 2434.183594 C 840.074219 2441.992188 832.664062 2451.234375 831.046875 2462.242188 C 828.46875 2479.761719 841.691406 2496.34375 857.496094 2504.335938 Z M 813.015625 2396.125 C 866.925781 2346.691406 940.65625 2317.152344 1009.878906 2355.644531 C 1016.425781 2359.28125 1022.980469 2363.589844 1030.445312 2364.167969 C 1046.839844 2365.441406 1050.757812 2344.324219 1057.351562 2333.429688 C 1074.617188 2304.890625 1091.957031 2276.402344 1109.378906 2247.957031 C 1123.800781 2224.414062 1294.652344 1936.011719 1310.234375 1945.324219 C 1305.019531 1942.191406 1300.261719 1938.554688 1296.203125 1934.34375 C 1292.0625 1930.042969 1288.726562 1925.273438 1286.0625 1920.164062 C 1269.394531 1930.304688 1254.265625 1939.070312 1239.640625 1947.507812 C 1193.734375 1973.996094 1149.871094 2002.1875 1110.894531 2038.414062 C 1090.480469 2057.390625 1070.21875 2076.609375 1049.949219 2095.859375 C 1002.730469 2140.671875 955.015625 2184.726562 905.859375 2227.402344 C 869.234375 2259.195312 835.230469 2285.1875 817.003906 2332.113281 C 812.0625 2344.832031 808.597656 2358.101562 806.566406 2371.59375 C 806.082031 2374.804688 806.5 2384.804688 806.265625 2392.96875 C 806.164062 2396.53125 810.386719 2398.53125 813.015625 2396.121094 Z M 774.824219 2216.648438 C 786.230469 2229.507812 802.414062 2239.148438 819.109375 2235.050781 C 835.800781 2230.949219 849.050781 2216.503906 853.375 2199.871094 C 857.855469 2182.632812 851.292969 2163.429688 837.082031 2152.699219 C 804.035156 2127.746094 744.582031 2182.558594 774.824219 2216.648438 Z M 755.253906 2146.390625 C 779.433594 2141.96875 799.519531 2116.128906 826.449219 2111.535156 C 856.148438 2106.46875 878.210938 2122.449219 891.976562 2148.074219 C 902.238281 2167.167969 897.546875 2187.519531 889.765625 2206.316406 C 887.78125 2211.105469 893.035156 2215.753906 897.390625 2212.945312 C 920.527344 2198.015625 945.425781 2167.839844 963.445312 2151.328125 C 988.25 2128.601562 1012.742188 2105.53125 1037.148438 2082.375 C 1057.476562 2063.09375 1077.777344 2043.816406 1098.238281 2024.808594 C 1145.550781 1980.183594 1201.410156 1946.589844 1258.027344 1915.324219 C 1264.296875 1911.867188 1270.71875 1908.277344 1275.289062 1902.769531 C 1288.648438 1886.667969 1281.578125 1842.703125 1289.78125 1816.878906 C 1291.84375 1810.386719 1285.636719 1804.359375 1279.101562 1806.277344 C 1198.664062 1829.875 1117.574219 1850.53125 1038.652344 1879.296875 C 1013.542969 1888.449219 988.726562 1898.367188 963.769531 1907.902344 C 950.691406 1912.902344 935.363281 1915.992188 923.828125 1924.269531 C 901.839844 1940.054688 889.175781 1966.765625 866.429688 1983.484375 C 843.117188 2000.625 817.089844 2014.289062 797.136719 2035.660156 C 796.589844 2036.246094 796.054688 2036.832031 795.519531 2037.421875 C 772.378906 2063.125 747.886719 2110.855469 755.253906 2146.390625 Z M 818.523438 1869.398438 C 804.003906 1866.984375 789.363281 1874.03125 778.246094 1883.683594 C 758.082031 1901.1875 740.113281 1938.742188 748.917969 1966.054688 C 759.789062 1999.773438 790.335938 1983.167969 816.328125 1966.632812 C 834.03125 1955.367188 848.722656 1937.425781 850.828125 1916.546875 C 852.925781 1895.667969 839.222656 1872.839844 818.523438 1869.398438 Z M 640.59375 1497.28125 C 702.5625 1516.886719 770.75 1507.878906 831.554688 1484.925781 C 868.320312 1471.042969 902.992188 1452.28125 936.480469 1431.839844 C 948.113281 1424.738281 980.578125 1411.457031 986.828125 1399.6875 C 995.695312 1382.988281 972.214844 1384.5 960.210938 1383.546875 C 887.21875 1377.734375 813.078125 1387.445312 743.914062 1411.421875 C 705.828125 1424.625 669.230469 1442.167969 635.210938 1463.808594 C 628.992188 1467.765625 622.15625 1473.089844 622.207031 1480.464844 C 622.265625 1489.375 632.101562 1494.59375 640.597656 1497.28125 Z M 548.25 1329.59375 C 550.136719 1339.027344 562.03125 1341.871094 571.617188 1342.761719 C 640.34375 1349.128906 712.617188 1354.957031 775.679688 1326.886719 C 789.597656 1320.691406 901.507812 1259.179688 898.007812 1249.152344 C 894.769531 1239.871094 824.007812 1238.050781 813.6875 1237.484375 C 785.445312 1235.9375 756.960938 1237.128906 729.238281 1243.046875 C 693.421875 1250.6875 659.746094 1265.933594 626.394531 1281.070312 C 606.371094 1290.15625 586.34375 1299.246094 566.320312 1308.335938 C 557.136719 1312.503906 546.273438 1319.703125 548.25 1329.59375 Z M 457.839844 1200.777344 C 458.800781 1206.984375 466.078125 1209.699219 472.210938 1211.066406 C 578.175781 1234.660156 690.828125 1214.230469 786.070312 1163.761719 C 810.207031 1150.96875 844.652344 1134.675781 861.808594 1113.25 C 800.210938 1094.046875 719.929688 1102.867188 657.628906 1114.675781 C 590.929688 1127.316406 526.386719 1151.566406 468.226562 1186.640625 C 462.898438 1189.855469 456.890625 1194.628906 457.84375 1200.777344 Z M 469.03125 1037.460938 C 535.742188 1036.492188 601.96875 1049.207031 668.671875 1050.585938 C 700.863281 1051.253906 733.359375 1048.988281 764.761719 1041.59375 C 780.378906 1037.917969 851.644531 1019.402344 854.03125 999.5625 C 856.253906 981.058594 783.355469 957.984375 768.722656 953.75 C 735.628906 944.179688 700.996094 940.203125 666.59375 940.578125 C 599.574219 941.308594 533.75 957.597656 469.242188 975.792969 C 435.152344 985.410156 399.929688 996.296875 373.882812 1020.300781 C 399.714844 1040.734375 436.097656 1037.941406 469.027344 1037.460938 Z M 349.347656 857.328125 C 441.332031 870.027344 533.601562 882.75 626.449219 883.957031 C 699.777344 884.910156 773.679688 878.558594 844.691406 859.601562 C 854.53125 856.976562 892.304688 851.390625 897.539062 842.703125 C 903.257812 833.214844 885.609375 818.722656 878 812.574219 C 856.546875 795.234375 828.78125 786.628906 802.335938 780.429688 C 650.09375 744.734375 486.957031 757.0625 341.8125 815.234375 C 331.515625 819.363281 319.558594 826.269531 319.914062 837.355469 C 320.332031 850.300781 336.515625 855.558594 349.347656 857.328125 Z M 349.347656 857.328125 " fill-opacity="1" fill-rule="nonzero"/><path fill="#ffffff" d="M 1884.117188 968.199219 C 1884.359375 968.199219 1884.78125 968.199219 1885.242188 968.199219 C 1945.179688 1021.136719 2006.515625 1072.859375 2067.015625 1125.363281 C 2014.515625 1173.261719 2001.625 1266.460938 2006.378906 1367.359375 C 2119.914062 1368.234375 2236.339844 1372.179688 2277.253906 1301.023438 C 2331.355469 1361.308594 2382.433594 1424.242188 2436.855469 1484.066406 C 2436.855469 1484.863281 2436.855469 1485.660156 2436.855469 1486.417969 C 2390.128906 1536.648438 2345.46875 1591 2298.140625 1644.957031 C 2294.070312 1649.695312 2279.960938 1666.976562 2278.617188 1667.234375 C 2277.453125 1667.253906 2259.875 1652.144531 2254.882812 1648.640625 C 2197.832031 1607.226562 2106.503906 1602.230469 2005.175781 1605.632812 C 2005.175781 1782.570312 2005.175781 1968.621094 2005.175781 2149.875 C 2005.175781 2236.960938 2001.707031 2334.914062 2005.175781 2421.359375 C 2006.9375 2466.234375 2009.144531 2507.46875 2018.765625 2544.261719 C 2028.488281 2580.535156 2045.445312 2606.636719 2067.015625 2631.441406 C 2007.179688 2682.292969 1947.703125 2733.21875 1888.890625 2785.082031 C 1886.042969 2785.082031 1883.136719 2785.082031 1880.25 2785.082031 C 1820.492188 2733.4375 1760.398438 2681.914062 1699.71875 2631.441406 C 1708.21875 2621.230469 1719.164062 2615.039062 1726.859375 2605.679688 C 1766.070312 2558.058594 1765.269531 2470.195312 1765.269531 2383.273438 C 1765.269531 2125.886719 1765.269531 1856.832031 1765.269531 1605.632812 C 1645.9375 1604.242188 1525.703125 1598.824219 1479.5 1670.859375 C 1427.71875 1610.292969 1375.960938 1550.085938 1323.644531 1490.121094 C 1323.644531 1488.210938 1323.644531 1486.039062 1323.644531 1484.066406 C 1376.90625 1425.632812 1427.359375 1364.234375 1480.699219 1305.898438 C 1534.28125 1367.460938 1647.859375 1369.289062 1765.269531 1367.359375 C 1767.652344 1277.488281 1764.707031 1198.667969 1726.859375 1151.164062 C 1723.351562 1146.683594 1699.71875 1128.46875 1699.71875 1125.363281 C 1699.71875 1124.386719 1716.257812 1110.609375 1721.96875 1105.652344 C 1775.59375 1059.542969 1835.769531 1011.320312 1884.117188 968.199219 " fill-opacity="1" fill-rule="nonzero"/><g clip-path="url(#f9b7b4e4d6)"><path fill="#231f20" d="M 1884.117188 968.199219 L 1884.117188 978.390625 C 1884.359375 978.390625 1884.78125 978.390625 1885.242188 978.390625 L 1885.242188 968.199219 L 1878.425781 975.804688 C 1938.484375 1028.859375 1999.84375 1080.585938 2060.28125 1133.027344 L 2067.015625 1125.363281 L 2060.078125 1117.855469 C 2035.222656 1140.550781 2019.105469 1172.050781 2009.125 1208.382812 C 1999.140625 1244.777344 1995.210938 1286.25 1995.210938 1329.910156 C 1995.210938 1342.394531 1995.53125 1355.054688 1996.132812 1367.835938 C 1996.394531 1373.253906 2000.84375 1377.511719 2006.296875 1377.554688 C 2023.535156 1377.691406 2040.914062 1377.890625 2058.113281 1377.890625 C 2106.085938 1377.871094 2152.808594 1376.359375 2192.863281 1366.902344 C 2212.886719 1362.144531 2231.269531 1355.375 2247.226562 1345.558594 C 2263.160156 1335.742188 2276.613281 1322.742188 2286.175781 1306.078125 L 2277.253906 1301.023438 L 2269.597656 1307.8125 C 2323.480469 1367.816406 2374.554688 1430.789062 2429.238281 1490.898438 L 2436.855469 1484.066406 L 2426.59375 1484.066406 C 2426.59375 1484.863281 2426.59375 1485.660156 2426.59375 1486.417969 L 2436.855469 1486.417969 L 2429.320312 1479.507812 C 2382.3125 1530.058594 2337.589844 1584.449219 2290.402344 1638.265625 L 2290.34375 1638.34375 C 2288.160156 1640.875 2283.667969 1646.308594 2279.519531 1651.1875 C 2277.453125 1653.617188 2275.488281 1655.886719 2274.066406 1657.457031 C 2273.34375 1658.234375 2272.761719 1658.851562 2272.503906 1659.089844 L 2272.421875 1659.171875 L 2275.992188 1663.074219 L 2272.882812 1658.8125 L 2272.421875 1659.171875 L 2275.992188 1663.074219 L 2272.882812 1658.8125 L 2278.035156 1665.921875 L 2273.867188 1658.214844 C 2273.34375 1658.472656 2273.085938 1658.671875 2272.882812 1658.8125 L 2278.035156 1665.921875 L 2273.867188 1658.214844 L 2278.535156 1666.816406 L 2276.671875 1657.21875 C 2275.089844 1657.539062 2274.386719 1657.957031 2273.867188 1658.214844 L 2278.535156 1666.816406 L 2276.671875 1657.21875 L 2278.617188 1667.234375 L 2278.617188 1657.039062 L 2278.617188 1666.976562 L 2281.28125 1657.398438 C 2280.703125 1657.238281 2279.941406 1657.039062 2278.617188 1657.039062 L 2278.617188 1666.976562 L 2281.28125 1657.398438 L 2278.835938 1666.179688 L 2283.007812 1658.054688 C 2282.726562 1657.917969 2282.34375 1657.699219 2281.28125 1657.398438 L 2278.835938 1666.179688 L 2283.007812 1658.054688 L 2280.179688 1663.550781 L 2283.449219 1658.292969 L 2283.007812 1658.054688 L 2280.179688 1663.550781 L 2283.449219 1658.292969 L 2282.367188 1660.007812 L 2283.488281 1658.316406 L 2283.449219 1658.292969 L 2282.367188 1660.007812 L 2283.488281 1658.316406 C 2283.46875 1658.316406 2282.945312 1657.957031 2282.304688 1657.457031 C 2279.960938 1655.6875 2275.628906 1652.144531 2271.5 1648.757812 C 2269.414062 1647.066406 2267.371094 1645.394531 2265.546875 1643.941406 C 2263.703125 1642.488281 2262.179688 1641.292969 2260.796875 1640.316406 L 2254.882812 1648.640625 L 2260.9375 1640.417969 C 2235.296875 1621.820312 2203.828125 1610.472656 2168.605469 1603.644531 C 2133.347656 1596.835938 2094.238281 1594.566406 2052.882812 1594.566406 C 2037.167969 1594.566406 2021.109375 1594.882812 2004.832031 1595.441406 C 1999.28125 1595.621094 1994.910156 1600.121094 1994.910156 1605.632812 C 1994.910156 1782.570312 1994.910156 1968.621094 1994.910156 2149.875 C 1994.910156 2207.753906 1993.367188 2270.644531 1993.367188 2331.90625 C 1993.367188 2362.546875 1993.75 2392.75 1994.910156 2421.757812 C 1996.714844 2466.714844 1998.859375 2508.582031 2008.824219 2546.808594 L 2008.84375 2546.867188 C 2018.984375 2584.875 2037.085938 2612.6875 2059.257812 2638.113281 L 2067.015625 2631.441406 L 2060.359375 2623.699219 C 2000.484375 2674.566406 1940.96875 2725.535156 1882.074219 2777.457031 L 1888.890625 2785.082031 L 1888.890625 2774.890625 C 1886.023438 2774.890625 1883.136719 2774.890625 1880.25 2774.890625 L 1880.25 2785.082031 L 1886.984375 2777.398438 C 1827.210938 2725.734375 1767.074219 2674.148438 1706.3125 2623.617188 L 1699.71875 2631.441406 L 1707.636719 2637.933594 C 1711.144531 2633.710938 1715.453125 2630.007812 1720.207031 2626.027344 C 1724.957031 2622.046875 1730.128906 2617.785156 1734.820312 2612.128906 C 1745.183594 2599.527344 1752.800781 2584.636719 1758.472656 2568.25 C 1766.953125 2543.683594 1771.121094 2515.671875 1773.285156 2485.945312 C 1775.429688 2456.222656 1775.53125 2424.765625 1775.53125 2393.386719 C 1775.53125 2390.023438 1775.53125 2386.636719 1775.53125 2383.273438 C 1775.53125 2125.886719 1775.53125 1856.832031 1775.53125 1605.632812 C 1775.53125 1600.058594 1771 1595.5 1765.390625 1595.441406 C 1742.878906 1595.183594 1720.246094 1594.765625 1698.015625 1594.765625 C 1650.285156 1594.785156 1604.382812 1596.574219 1564.792969 1606.09375 C 1545.007812 1610.851562 1526.765625 1617.582031 1510.789062 1627.195312 C 1494.8125 1636.773438 1481.101562 1649.355469 1470.839844 1665.363281 L 1479.5 1670.859375 L 1487.316406 1664.246094 C 1435.539062 1603.683594 1383.738281 1543.457031 1331.382812 1483.429688 L 1323.644531 1490.121094 L 1333.90625 1490.121094 C 1333.90625 1488.210938 1333.90625 1486.039062 1333.90625 1484.066406 L 1323.644531 1484.066406 L 1331.242188 1490.898438 C 1384.742188 1432.222656 1435.175781 1370.804688 1488.296875 1312.75 L 1480.699219 1305.898438 L 1472.941406 1312.570312 C 1485.613281 1327.121094 1501.289062 1338.492188 1519.027344 1347.292969 C 1545.648438 1360.472656 1576.917969 1368.054688 1610.976562 1372.4375 C 1645.035156 1376.816406 1681.917969 1377.992188 1719.804688 1377.992188 C 1734.898438 1377.992188 1750.152344 1377.8125 1765.429688 1377.554688 C 1770.941406 1377.453125 1775.371094 1373.113281 1775.53125 1367.636719 C 1775.894531 1353.542969 1776.152344 1339.707031 1776.152344 1326.1875 C 1776.132812 1289.59375 1774.390625 1255.289062 1768.4375 1224.570312 C 1762.460938 1193.910156 1752.277344 1166.652344 1734.917969 1144.832031 L 1734.960938 1144.894531 C 1733.878906 1143.539062 1732.933594 1142.644531 1731.792969 1141.527344 C 1729.808594 1139.636719 1727.320312 1137.488281 1724.617188 1135.136719 C 1720.585938 1131.671875 1716.097656 1127.832031 1712.769531 1124.785156 C 1711.125 1123.269531 1709.761719 1121.9375 1709.082031 1121.179688 L 1708.71875 1120.761719 L 1708.679688 1120.703125 L 1707.214844 1121.796875 L 1708.738281 1120.800781 L 1708.679688 1120.703125 L 1707.214844 1121.796875 L 1708.738281 1120.800781 L 1703.347656 1124.304688 L 1709.28125 1121.796875 C 1709 1121.199219 1708.820312 1120.941406 1708.738281 1120.800781 L 1703.347656 1124.304688 L 1709.28125 1121.796875 L 1700.882812 1125.363281 L 1709.984375 1125.363281 C 1709.941406 1123.390625 1709.5 1122.414062 1709.28125 1121.796875 L 1700.882812 1125.363281 L 1709.984375 1125.363281 L 1699.878906 1125.363281 L 1709.359375 1128.824219 C 1709.601562 1128.128906 1709.960938 1127.132812 1709.984375 1125.363281 L 1699.878906 1125.363281 L 1709.359375 1128.824219 L 1700.441406 1125.5625 L 1708.257812 1130.9375 C 1708.480469 1130.597656 1708.820312 1130.179688 1709.359375 1128.824219 L 1700.441406 1125.5625 L 1708.257812 1130.9375 L 1703.707031 1127.8125 L 1707.796875 1131.535156 C 1707.777344 1131.535156 1707.835938 1131.515625 1708.257812 1130.9375 L 1703.707031 1127.8125 L 1707.796875 1131.535156 C 1707.835938 1131.472656 1708.257812 1131.054688 1708.820312 1130.539062 C 1710.84375 1128.648438 1714.773438 1125.242188 1718.621094 1121.9375 C 1722.511719 1118.613281 1726.378906 1115.347656 1728.707031 1113.335938 L 1728.683594 1113.355469 C 1782.125 1067.386719 1842.324219 1019.164062 1890.972656 975.78125 L 1884.117188 968.199219 L 1884.117188 978.390625 L 1884.117188 968.199219 L 1877.261719 960.613281 C 1829.214844 1003.476562 1769.058594 1051.675781 1715.234375 1097.945312 L 1715.214844 1097.964844 C 1712.46875 1100.355469 1706.875 1105.074219 1701.964844 1109.296875 C 1699.5 1111.425781 1697.214844 1113.4375 1695.429688 1115.070312 C 1694.527344 1115.90625 1693.765625 1116.621094 1693.023438 1117.378906 C 1692.664062 1117.757812 1692.324219 1118.132812 1691.820312 1118.75 C 1691.5625 1119.070312 1691.28125 1119.449219 1690.839844 1120.183594 C 1690.636719 1120.5625 1690.378906 1121.023438 1690.097656 1121.757812 C 1689.835938 1122.515625 1689.476562 1123.550781 1689.457031 1125.363281 C 1689.476562 1127.054688 1689.816406 1128.207031 1690.117188 1129.085938 C 1690.738281 1130.777344 1691.339844 1131.613281 1691.882812 1132.410156 C 1692.882812 1133.824219 1693.847656 1134.859375 1694.949219 1135.992188 C 1696.832031 1137.964844 1699.097656 1140.015625 1701.5625 1142.226562 C 1705.25 1145.488281 1709.382812 1148.972656 1712.769531 1151.921875 C 1714.453125 1153.394531 1715.976562 1154.726562 1717.097656 1155.785156 C 1717.640625 1156.300781 1718.121094 1156.738281 1718.421875 1157.058594 L 1718.761719 1157.414062 L 1718.824219 1157.476562 C 1733.394531 1175.753906 1742.71875 1199.761719 1748.269531 1228.433594 C 1753.84375 1257.082031 1755.625 1290.25 1755.625 1326.1875 C 1755.625 1339.464844 1755.386719 1353.125 1755.003906 1367.101562 L 1765.269531 1367.359375 L 1765.089844 1357.167969 C 1749.875 1357.425781 1734.71875 1357.605469 1719.804688 1357.605469 C 1669.871094 1357.625 1622.34375 1355.492188 1582.210938 1346.972656 C 1562.144531 1342.710938 1543.945312 1336.859375 1528.1875 1329.035156 C 1512.433594 1321.210938 1499.101562 1311.453125 1488.457031 1299.230469 C 1486.554688 1297.039062 1483.769531 1295.746094 1480.820312 1295.707031 C 1477.894531 1295.667969 1475.066406 1296.902344 1473.101562 1299.050781 C 1419.5 1357.644531 1369.046875 1419.0625 1316.027344 1477.21875 C 1314.320312 1479.089844 1313.378906 1481.539062 1313.378906 1484.066406 C 1313.378906 1486.039062 1313.378906 1488.210938 1313.378906 1490.121094 C 1313.378906 1492.550781 1314.261719 1494.9375 1315.867188 1496.789062 C 1368.164062 1556.738281 1419.921875 1616.902344 1471.660156 1677.449219 C 1473.765625 1679.917969 1476.933594 1681.25 1480.179688 1681.011719 C 1483.445312 1680.792969 1486.394531 1679.058594 1488.136719 1676.332031 C 1496.617188 1663.152344 1507.722656 1652.878906 1521.414062 1644.636719 C 1541.898438 1632.292969 1568.28125 1624.765625 1598.507812 1620.507812 C 1628.699219 1616.207031 1662.636719 1615.152344 1698.015625 1615.152344 C 1719.984375 1615.152344 1742.558594 1615.550781 1765.148438 1615.828125 L 1765.269531 1605.632812 L 1755.003906 1605.632812 C 1755.003906 1856.832031 1755.003906 2125.886719 1755.003906 2383.273438 C 1755.003906 2386.636719 1755.003906 2390.023438 1755.003906 2393.386719 C 1755.003906 2435.136719 1754.804688 2476.410156 1750.015625 2512.386719 C 1747.648438 2530.363281 1744.121094 2546.988281 1739.046875 2561.640625 C 1733.976562 2576.292969 1727.382812 2588.9375 1718.921875 2599.210938 C 1715.875 2602.933594 1711.746094 2606.457031 1706.976562 2610.457031 C 1702.203125 2614.460938 1696.792969 2618.960938 1691.820312 2624.953125 C 1688.214844 2629.273438 1688.816406 2635.664062 1693.125 2639.265625 C 1753.742188 2689.65625 1813.777344 2741.144531 1873.496094 2792.769531 C 1875.359375 2794.359375 1877.785156 2795.277344 1880.25 2795.277344 C 1883.136719 2795.277344 1886.023438 2795.277344 1888.890625 2795.277344 C 1891.375 2795.277344 1893.820312 2794.339844 1895.707031 2792.707031 C 1954.4375 2740.902344 2013.875 2690.035156 2073.691406 2639.1875 C 2075.773438 2637.414062 2077.058594 2634.925781 2077.257812 2632.21875 C 2077.457031 2629.492188 2076.578125 2626.84375 2074.792969 2624.773438 C 2053.804688 2600.601562 2037.988281 2576.195312 2028.6875 2541.632812 L 2028.6875 2541.691406 C 2019.425781 2506.332031 2017.183594 2465.757812 2015.417969 2420.960938 C 2014.273438 2392.332031 2013.894531 2362.367188 2013.894531 2331.90625 C 2013.894531 2270.984375 2015.4375 2208.109375 2015.4375 2149.875 C 2015.4375 1968.621094 2015.4375 1782.570312 2015.4375 1605.632812 L 2005.175781 1605.632812 L 2005.515625 1615.808594 C 2021.632812 1615.269531 2037.449219 1614.953125 2052.882812 1614.953125 C 2093.476562 1614.953125 2131.402344 1617.222656 2164.675781 1623.652344 C 2197.992188 1630.082031 2226.519531 1640.675781 2248.828125 1656.859375 L 2248.96875 1656.960938 C 2249.75 1657.519531 2251.777344 1659.089844 2254.0625 1660.941406 C 2257.527344 1663.730469 2261.839844 1667.292969 2265.425781 1670.179688 C 2267.25 1671.652344 2268.855469 1672.929688 2270.238281 1673.964844 C 2270.9375 1674.480469 2271.539062 1674.917969 2272.261719 1675.398438 C 2272.644531 1675.617188 2273.003906 1675.875 2273.664062 1676.191406 C 2273.984375 1676.371094 2274.386719 1676.550781 2275.027344 1676.789062 C 2275.710938 1677.007812 2276.570312 1677.386719 2278.617188 1677.425781 C 2279.21875 1677.425781 2279.960938 1677.347656 2280.542969 1677.226562 C 2282.726562 1676.769531 2283.46875 1676.214844 2284.128906 1675.855469 C 2285.273438 1675.136719 2285.671875 1674.738281 2286.152344 1674.320312 C 2286.976562 1673.585938 2287.617188 1672.929688 2288.378906 1672.113281 C 2290.925781 1669.382812 2294.433594 1665.261719 2297.839844 1661.222656 C 2301.226562 1657.21875 2304.457031 1653.296875 2305.9375 1651.566406 L 2305.878906 1651.664062 C 2353.347656 1597.53125 2397.949219 1543.257812 2444.394531 1493.347656 C 2446.136719 1491.453125 2447.121094 1488.984375 2447.121094 1486.417969 C 2447.121094 1485.660156 2447.121094 1484.863281 2447.121094 1484.066406 C 2447.121094 1481.539062 2446.179688 1479.089844 2444.472656 1477.21875 C 2390.289062 1417.691406 2339.234375 1354.777344 2284.929688 1294.253906 C 2282.726562 1291.804688 2279.457031 1290.550781 2276.191406 1290.886719 C 2272.902344 1291.226562 2269.976562 1293.117188 2268.351562 1295.964844 C 2260.574219 1309.464844 2249.890625 1319.894531 2236.378906 1328.238281 C 2216.195312 1340.742188 2189.515625 1348.246094 2158.863281 1352.40625 C 2128.234375 1356.609375 2093.734375 1357.503906 2058.113281 1357.503906 C 2041.074219 1357.503906 2023.757812 1357.304688 2006.457031 1357.167969 L 2006.378906 1367.359375 L 2016.640625 1366.882812 C 2016.039062 1354.398438 2015.738281 1342.054688 2015.738281 1329.910156 C 2015.71875 1287.484375 2019.605469 1247.644531 2028.910156 1213.757812 C 2038.230469 1179.8125 2052.882812 1152.058594 2073.972656 1132.867188 C 2076.136719 1130.898438 2077.320312 1128.148438 2077.277344 1125.222656 C 2077.257812 1122.316406 2075.976562 1119.589844 2073.769531 1117.675781 C 2013.210938 1065.117188 1951.894531 1013.410156 1892.058594 960.574219 C 1890.191406 958.917969 1887.746094 958.003906 1885.242188 958.003906 C 1884.78125 958.003906 1884.359375 958.003906 1884.117188 958.003906 C 1881.574219 958.003906 1879.148438 958.917969 1877.261719 960.613281 L 1884.117188 968.199219 " fill-opacity="1" fill-rule="nonzero"/></g></svg>